<?xml version="1.0" standalone="no"?><!DOCTYPE svg PUBLIC "-//W3C//DTD SVG 1.1//EN" "http://www.w3.org/Graphics/SVG/1.1/DTD/svg11.dtd"><svg t="1777186175391" class="icon" viewBox="0 0 1024 1024" version="1.1" xmlns="http://www.w3.org/2000/svg" p-id="3484" xmlns:xlink="http://www.w3.org/1999/xlink" width="200" height="200"><path d="M635.733333 473.6c76.8 17.066667 132.266667 85.333333 132.266667 166.4 0 93.866667-76.8 170.666667-170.666667 170.666667-81.066667 0-149.333333-55.466667-166.4-132.266667 12.8 4.266667 25.6 4.266667 38.4 4.266667 93.866667 0 170.666667-76.8 170.666667-170.666667 0-12.8 0-21.333333-4.266667-34.133333v-4.266667z m-76.8-38.4s0 4.266667 0 0c8.533333 12.8 12.8 17.066667 21.333334 17.066667 4.266667 0 8.533333 4.266667 4.266666 8.533333v4.266667c-4.266667 4.266667-8.533333 17.066667-8.533333 25.6 0 4.266667 0 8.533333-4.266667 8.533333h-4.266666c-8.533333-4.266667-17.066667-4.266667-25.6 0-4.266667 0-8.533333 0-8.533334-4.266667v-4.266666c0-8.533333 0-17.066667-8.533333-25.6-4.266667-4.266667-4.266667-8.533333 0-8.533334h4.266667c8.533333 0 17.066667-8.533333 21.333333-12.8 0-8.533333 4.266667-8.533333 8.533333-8.533333z m-238.933333-128l-4.266667 4.266667c-4.266667 4.266667-12.8 0-17.066666-4.266667V294.4c0-17.066667-4.266667-29.866667-12.8-42.666667l-4.266667-4.266666c-4.266667-4.266667-4.266667-12.8 0-21.333334 4.266667-4.266667 4.266667-4.266667 8.533333-4.266666h4.266667c12.8 0 25.6-12.8 34.133333-21.333334l4.266667-4.266666c0-8.533333 8.533333-8.533333 12.8-8.533334 4.266667 0 4.266667 4.266667 4.266667 4.266667l4.266666 4.266667c8.533333 17.066667 21.333333 25.6 34.133334 29.866666h4.266666c8.533333 0 12.8 8.533333 12.8 17.066667 0 4.266667 0 4.266667-4.266666 8.533333h-4.266667c-8.533333 12.8-12.8 25.6-12.8 38.4v4.266667c0 8.533333-4.266667 12.8-12.8 17.066667h-8.533333v-4.266667c-12.8-4.266667-29.866667-4.266667-42.666667 0z m-59.733333 226.133333c-4.266667 4.266667-12.8 0-12.8-4.266666v-8.533334c4.266667-12.8 0-25.6-12.8-34.133333-4.266667-4.266667-4.266667-12.8 0-12.8l4.266666-4.266667c12.8 0 25.6-8.533333 29.866667-21.333333 4.266667-4.266667 8.533333-8.533333 12.8-4.266667l4.266667 4.266667c4.266667 12.8 17.066667 21.333333 29.866666 21.333333 4.266667 0 8.533333 4.266667 8.533334 12.8 0 4.266667 0 4.266667-4.266667 4.266667-8.533333 8.533333-12.8 21.333333-12.8 34.133333 0 4.266667-4.266667 12.8-8.533333 12.8h-8.533334c-4.266667-8.533333-21.333333-8.533333-29.866666 0z" p-id="3485"></path><path d="M746.666667 981.333333h-469.333334C196.266667 981.333333 128 913.066667 128 832v-640C128 110.933333 196.266667 42.666667 277.333333 42.666667h469.333334C827.733333 42.666667 896 110.933333 896 192v640c0 81.066667-68.266667 149.333333-149.333333 149.333333zM277.333333 85.333333C217.6 85.333333 170.666667 132.266667 170.666667 192v640C170.666667 891.733333 217.6 938.666667 277.333333 938.666667h469.333334c59.733333 0 106.666667-46.933333 106.666666-106.666667v-640C853.333333 132.266667 806.4 85.333333 746.666667 85.333333h-469.333334z" p-id="3486"></path></svg>